<svg width="22" height="21" viewBox="0 0 22 21" fill="none" xmlns="http://www.w3.org/2000/svg">
<path d="M11 7.5C10.2044 7.5 9.44129 7.81607 8.87868 8.37868C8.31607 8.94129 8 9.70435 8 10.5C8 11.2956 8.31607 12.0587 8.87868 12.6213C9.44129 13.1839 10.2044 13.5 11 13.5C11.7956 13.5 12.5587 13.1839 13.1213 12.6213C13.6839 12.0587 14 11.2956 14 10.5C14 9.70435 13.6839 8.94129 13.1213 8.37868C12.5587 7.81607 11.7956 7.5 11 7.5ZM11 15.5C9.67392 15.5 8.40215 14.9732 7.46447 14.0355C6.52678 13.0979 6 11.8261 6 10.5C6 9.17392 6.52678 7.90215 7.46447 6.96447C8.40215 6.02678 9.67392 5.5 11 5.5C12.3261 5.5 13.5979 6.02678 14.5355 6.96447C15.4732 7.90215 16 9.17392 16 10.5C16 11.8261 15.4732 13.0979 14.5355 14.0355C13.5979 14.9732 12.3261 15.5 11 15.5ZM11 3C6 3 1.73 6.11 0 10.5C1.73 14.89 6 18 11 18C16 18 20.27 14.89 22 10.5C20.27 6.11 16 3 11 3Z" fill="black"/>
<rect x="14.6753" y="0.935547" width="2.51392" height="20.4565" transform="rotate(28.0889 14.6753 0.935547)" fill="black"/>
</svg>
