<svg width="20" height="20" viewBox="0 0 20 20" fill="none" xmlns="http://www.w3.org/2000/svg">
<path d="M19.911 5.14181C19.5606 3.93848 18.9123 2.84299 18.0261 1.95677C17.1398 1.07054 16.0443 0.422216 14.841 0.0718091C14.5131 -0.0128687 14.169 -0.0128687 13.841 0.0718091C13.5112 0.167565 13.2116 0.346649 12.971 0.591809L10.741 2.83181L1.20102 12.3618C0.901155 12.6749 0.705538 13.0731 0.641017 13.5018L0.0310165 17.6618C-0.0156523 17.9731 0.00827114 18.291 0.101017 18.5918C0.203017 18.8918 0.371017 19.1648 0.591017 19.3918C0.815017 19.6138 1.08502 19.7838 1.38102 19.8918C1.58802 19.9598 1.80402 19.9928 2.02102 19.9918H2.31102L6.47102 19.3818C6.90532 19.3261 7.30932 19.1293 7.62102 18.8218L17.171 9.27181L19.391 7.06181C19.6412 6.81701 19.8227 6.51085 19.9174 6.17393C20.0122 5.837 20.0169 5.48111 19.931 5.14181H19.911ZM18.451 5.77181C18.4246 5.85623 18.3763 5.93215 18.311 5.99181L16.621 7.68181L12.301 3.37181L14.011 1.66181C14.0771 1.60192 14.1556 1.55752 14.241 1.53181H14.471C15.4178 1.81341 16.2793 2.32665 16.9778 3.02508C17.6762 3.7235 18.1894 4.58507 18.471 5.53181C18.4806 5.61234 18.4738 5.69398 18.451 5.77181Z" fill="white"/>
</svg>
